#!OML:ASF F:\VICON\USERDATA\INSTALL\rory3\rory3.ASF
:FULLY-SPECIFIED
:DEGREES
1036
root 0.348741 16.5644 -0.559329 28.8725 -21.4107 4.50182
lowerback -20.8151 -5.13005 -2.31496
upperback -22.6441 -7.08324 3.31857
thorax -13.7166 -3.24931 4.48604
lowerneck -6.17549 8.30184 0.720135
upperneck 17.9876 9.42061 10.7154
head 5.95898 5.45554 3.89974
rclavicle -6.24184e-014 4.77083e-015
rhumerus -39.1644 -34.5343 23.3983
rradius 19.6444
rwrist 9.59303
rhand 16.1443 1.19539
rfingers 7.12502
rthumb 40.9276 -23.744
lclavicle -6.24184e-014 4.77083e-015
lhumerus 51.7093 -27.3966 -2.64653
lradius 40.1252
lwrist -2.3867
lhand 13.0895 18.7544
lfingers 7.12502
lthumb 38.0503 44.54
rfemur -56.6101 5.9098 23.2871
rtibia 40.5269
rfoot -48.3853 -36.3185
rtoes 38.8986
lfemur -7.57802 -6.706 -24.8313
ltibia 26.4007
lfoot 10.9232 42.3529
ltoes 3.97504
1037
root 0.337545 16.5577 -0.557368 29.0959 -21.7331 4.60717
lowerback -21.3373 -4.94079 -2.42595
upperback -22.2218 -6.80507 2.89746
thorax -12.931 -3.16323 3.99843
lowerneck -6.56586 8.22133 0.529906
upperneck 16.9508 9.31105 11.2223
head 5.66923 5.41088 4.05237
rclavicle 6.36111e-015 -1.59028e-014
rhumerus -40.3877 -35.4781 24.2821
rradius 19.5715
rwrist 10.3127
rhand 16.1431 1.3601
rfingers 7.12502
rthumb 40.9266 -23.5796
lclavicle 6.36111e-015 -1.59028e-014
lhumerus 52.723 -24.9715 -2.28578
lradius 39.3672
lwrist -4.16608
lhand 11.8311 18.7855
lfingers 7.12502
lthumb 36.861 44.8858
rfemur -56.9274 6.56524 22.7788
rtibia 40.5066
rfoot -48.3371 -36.1063
rtoes 39.5954
lfemur -7.9345 -6.84503 -24.9802
ltibia 26.4716
lfoot 5.61952 44.0833
ltoes 15.3102
1038
root 0.324372 16.5519 -0.559731 29.4635 -21.8973 4.61955
lowerback -20.2964 -5.24801 -2.75047
upperback -23.5847 -7.23318 3.5107
thorax -14.028 -3.25958 4.8345
lowerneck -5.19032 8.54672 0.269948
upperneck 16.5238 9.86316 11.2798
head 5.24722 5.6303 4.03958
rclavicle 4.96962e-014 3.97569e-015
rhumerus -38.2654 -34.4345 22.9859
rradius 19.5636
rwrist 9.85869
rhand 16.2743 1.28821
rfingers 7.12502
rthumb 41.0498 -23.6123
lclavicle 4.96962e-014 3.97569e-015
lhumerus 51.5799 -24.5701 -0.654271
lradius 38.7507
lwrist -6.04701
lhand 10.8575 18.6976
lfingers 7.12502
lthumb 35.9392 45.029
rfemur -57.3811 7.36612 22.2622
rtibia 40.5105
rfoot -47.8337 -35.2154
rtoes 42.9578
lfemur -8.39835 -6.69378 -24.9141
ltibia 26.4998
lfoot 2.41935 44.6938
ltoes 22.11
1039
root 0.309466 16.5465 -0.555757 29.8137 -21.8405 4.31505
lowerback -21.4153 -5.04173 -2.32565
upperback -22.412 -6.96653 3.01647
thorax -13.1333 -3.24915 4.07574
lowerneck -5.87319 8.38578 0.495318
upperneck 15.602 9.65077 11.334
head 5.10243 5.53203 4.00809
rclavicle -9.54166e-015 -2.70347e-014
rhumerus -39.7537 -35.7542 24.0872
rradius 19.4596
rwrist 10.6585
rhand 16.4004 1.42988
rfingers 7.12502
rthumb 41.1681 -23.4328
lclavicle -9.54166e-015 -2.70347e-014
lhumerus 52.6199 -21.93 0.0874541
lradius 38.1227
lwrist -7.53887
lhand 10.2733 18.6348
lfingers 7.12502
lthumb 35.3855 45.0999
rfemur -57.6047 7.96396 22.2732
rtibia 40.5028
rfoot -49.4269 -36.0787
rtoes 42.3278
lfemur -8.73547 -6.42118 -24.4492
ltibia 26.5262
lfoot 0.300248 45.0462
ltoes 26.0489
1040
root 0.295701 16.5423 -0.538908 30.0107 -21.8172 4.03796
lowerback -21.8482 -4.81128 -1.89729
upperback -22.1042 -6.70428 2.66285
thorax -12.5993 -3.22834 3.40122
lowerneck -6.31457 8.31164 0.622505
upperneck 15.2266 9.50234 11.6251
head 5.06309 5.48479 4.07841
rclavicle -4.81059e-014 -3.33958e-014
rhumerus -40.4961 -35.7844 24.4815
rradius 19.4319
rwrist 10.5294
rhand 16.1709 1.50392
rfingers 7.12502
rthumb 40.9526 -23.4275
lclavicle -4.81059e-014 -3.33958e-014
lhumerus 53.6891 -20.2849 0.34358
lradius 37.6073
lwrist -8.10528
lhand 8.98711 18.7811
lfingers 7.12502
lthumb 34.165 45.5281
rfemur -57.6203 8.09148 22.5508
rtibia 40.5311
rfoot -48.5632 -35.7316
rtoes 42.0583
lfemur -8.82874 -6.26412 -24.0964
ltibia 26.518
lfoot 3.85486 45.1284
ltoes 23.3934
1041
root 0.284686 16.5385 -0.523238 30.1504 -21.6346 3.74488
lowerback -21.8539 -4.73764 -1.51455
upperback -22.1011 -6.66261 2.55058
thorax -12.6493 -3.27112 3.07407
lowerneck -6.18171 8.30505 0.549231
upperneck 14.7927 9.4974 11.9454
head 4.88556 5.48356 4.1605
rclavicle -8.82604e-014 -6.2816e-014
rhumerus -40.141 -34.6449 23.9137
rradius 19.4974
rwrist 9.39808
rhand 16.0016 1.33341
rfingers 7.12502
rthumb 40.7936 -23.6482
lclavicle -8.82604e-014 -6.2816e-014
lhumerus 54.2552 -19.1397 1.02043
lradius 37.0897
lwrist -8.83387
lhand 7.68068 19.0076
lfingers 7.12502
lthumb 32.9234 46.024
rfemur -57.5567 8.28737 22.7785
rtibia 40.5663
rfoot -49.9582 -36.5753
rtoes 39.7478
lfemur -8.82176 -6.08733 -23.6642
ltibia 26.4868
lfoot 5.10046 45.2629
ltoes 23.4865
1042
root 0.271962 16.5368 -0.5164 30.1901 -21.623 3.87758
lowerback -21.6483 -4.92562 -1.76941
upperback -22.1201 -6.88469 2.59337
thorax -12.7355 -3.34213 3.25499
lowerneck -6.41847 8.42674 0.549077
upperneck 14.5865 9.6468 12.1222
head 4.84419 5.56795 4.22438
rclavicle 4.6118e-014 2.46493e-014
rhumerus -39.5272 -34.1926 23.2975
rradius 19.5041
rwrist 8.80662
rhand 15.9094 1.23651
rfingers 7.12502
rthumb 40.707 -23.7723
lclavicle 4.6118e-014 2.46493e-014
lhumerus 54.1315 -17.6093 2.79837
lradius 36.5682
lwrist -10.3569
lhand 6.6782 19.085
lfingers 7.12502
lthumb 31.9693 46.2971
rfemur -57.7113 9.1683 22.0031
rtibia 40.6561
rfoot -51.7513 -36.956
rtoes 40.3939
lfemur -8.91354 -5.93337 -23.6567
ltibia 26.3906
lfoot 3.7292 45.5698
ltoes 25.6383
1043
root 0.260575 16.5368 -0.513188 30.2183 -21.743 4.10535
lowerback -21.3113 -5.13519 -2.19159
upperback -22.2136 -7.1254 2.67286
thorax -12.9659 -3.39102 3.58775
lowerneck -6.91795 8.65776 0.447812
upperneck 14.8351 9.87146 12.5767
head 4.96158 5.72404 4.4276
rclavicle 6.48038e-014 3.73715e-014
rhumerus -38.7293 -33.7022 22.5266
rradius 19.4821
rwrist 8.04234
rhand 15.3673 1.19884
rfingers 7.12502
rthumb 40.1973 -23.9674
lclavicle 6.48038e-014 3.73715e-014
lhumerus 53.9647 -16.2325 4.40414
lradius 36.1698
lwrist -11.7119
lhand 6.01669 19.0658
lfingers 7.12502
lthumb 31.3392 46.4021
rfemur -57.9391 10.1008 21.0608
rtibia 40.7513
rfoot -53.2209 -36.8894
rtoes 41.0283
lfemur -9.06611 -5.87176 -23.8002
ltibia 26.2851
lfoot 4.6061 45.6988
ltoes 25.0542
1044
root 0.252051 16.5327 -0.514174 30.3226 -21.8691 4.17388
lowerback -21.0108 -5.17372 -2.39746
upperback -22.3972 -7.1807 2.65206
thorax -13.3537 -3.38067 3.72298
lowerneck -6.90527 8.72843 0.363473
upperneck 14.8933 9.92673 12.9208
head 4.94961 5.77179 4.55003
rclavicle 7.27552e-014 5.96354e-014
rhumerus -38.283 -33.1468 22.3268
rradius 19.5101
rwrist 7.85631
rhand 15.0509 1.26271
rfingers 7.12502
rthumb 39.8996 -23.9936
lclavicle 7.27552e-014 5.96354e-014
lhumerus 54.1783 -15.1921 5.64966
lradius 35.8177
lwrist -12.7599
lhand 6.10288 19.1722
lfingers 7.12502
lthumb 31.4213 46.4925
rfemur -58.119 10.2465 20.8712
rtibia 40.8242
rfoot -53.2706 -36.6633
rtoes 41.0624
lfemur -9.2079 -5.95027 -23.8304
ltibia 26.1941
lfoot 3.55427 46.0433
ltoes 26.1457
1045
root 0.245729 16.5275 -0.514958 30.4464 -21.8773 4.10397
lowerback -20.7361 -5.16176 -2.39786
upperback -22.554 -7.19048 2.62177
thorax -13.7205 -3.37685 3.73698
lowerneck -6.67447 8.72451 0.473105
upperneck 14.7385 9.93689 12.875
head 4.87092 5.76833 4.49933
rclavicle 1.07344e-013 5.725e-014
rhumerus -38.5681 -34.2439 23.4925
rradius 19.39
rwrist 10.0007
rhand 15.7082 1.72961
rfingers 7.12502
rthumb 40.5178 -23.3381
lclavicle 1.07344e-013 5.725e-014
lhumerus 54.4325 -14.177 7.1075
lradius 35.4391
lwrist -13.8865
lhand 6.19693 19.4393
lfingers 7.12502
lthumb 31.511 46.7422
rfemur -58.2515 10.3679 20.8725
rtibia 40.8665
rfoot -53.0799 -36.8333
rtoes 40.6202
lfemur -9.27663 -5.7482 -23.6862
ltibia 26.1328
lfoot 0.196104 46.4029
ltoes 30.401
1046
root 0.240598 16.5204 -0.509855 30.6922 -21.6962 3.72306
lowerback -20.5475 -5.17182 -2.06599
upperback -22.6559 -7.2473 2.75475
thorax -13.9741 -3.4323 3.73574
lowerneck -6.71275 8.79793 0.40934
upperneck 14.715 10.0283 13.0087
head 4.85276 5.81924 4.55451
rclavicle 1.66979e-014 6.2816e-014
rhumerus -38.496 -35.0972 24.161
rradius 19.279
rwrist 11.3603
rhand 16.0094 1.85109
rfingers 7.12502
rthumb 40.8009 -23.1282
lclavicle 1.66979e-014 6.2816e-014
lhumerus 54.4359 -13.0281 8.90061
lradius 35.1473
lwrist -14.8766
lhand 5.94679 19.562
lfingers 7.12502
lthumb 31.2726 46.9112
rfemur -58.3132 10.5058 21.2374
rtibia 40.8804
rfoot -52.899 -37.0868
rtoes 40.1076
lfemur -9.2377 -5.44172 -23.2044
ltibia 26.0703
lfoot -5.24437 46.2857
ltoes 36.519
1047
root 0.237075 16.5187 -0.507443 30.8467 -21.5478 3.45608
lowerback -20.4671 -5.09811 -1.78467
upperback -22.5942 -7.18123 2.69564
thorax -13.9749 -3.44454 3.52611
lowerneck -7.01856 8.81469 0.252973
upperneck 14.6035 10.0163 13.392
head 4.84095 5.83534 4.7072
rclavicle -6.77856e-014 -7.39479e-014
rhumerus -38.5168 -34.9717 24.2485
rradius 19.2563
rwrist 11.2891
rhand 15.4848 1.71342
rfingers 7.12502
rthumb 40.3078 -23.419
lclavicle -6.77856e-014 -7.39479e-014
lhumerus 54.9911 -11.6989 10.6035
lradius 34.7505
lwrist -15.511
lhand 5.82499 19.4205
lfingers 7.12502
lthumb 31.1565 46.7921
rfemur -58.3451 10.5903 21.4796
rtibia 40.8942
rfoot -52.876 -37.1356
rtoes 39.8832
lfemur -9.18518 -5.37781 -22.8504
ltibia 26.0127
lfoot -5.89727 46.0699
ltoes 37.551
1048
root 0.231854 16.5138 -0.512444 30.9123 -21.6736 3.60236
lowerback -20.5722 -5.05119 -1.95056
upperback -22.3791 -7.10042 2.43875
thorax -13.6451 -3.41476 3.29731
lowerneck -7.78702 8.81486 0.256865
upperneck 14.5455 9.92524 13.8363
head 4.93813 5.8398 4.88184
rclavicle -2.64384e-014 -5.24792e-014
rhumerus -39.2105 -35.6903 24.894
rradius 19.1822
rwrist 12.0881
rhand 15.085 1.93326
rfingers 7.12502
rthumb 39.9316 -23.3134
lclavicle -2.64384e-014 -5.24792e-014
lhumerus 55.9035 -10.3066 11.6392
lradius 34.4623
lwrist -15.3536
lhand 5.67848 19.5185
lfingers 7.12502
lthumb 31.0169 46.9167
rfemur -58.5147 10.6899 21.2302
rtibia 40.8847
rfoot -53.1208 -36.8765
rtoes 40.0231
lfemur -9.3075 -5.1671 -22.9727
ltibia 26.0306
lfoot -7.14219 45.7689
ltoes 38.937
1049
root 0.226398 16.5094 -0.518889 31.1141 -21.8384 3.66046
lowerback -20.5908 -5.04224 -2.10393
upperback -22.3362 -7.07986 2.32099
thorax -13.5784 -3.39745 3.24321
lowerneck -8.1313 8.79122 0.472367
upperneck 14.4064 9.8584 13.8297
head 4.97355 5.82184 4.85818
rclavicle -4.96962e-014 -6.40087e-014
rhumerus -39.7133 -36.714 25.6817
rradius 19.1161
rwrist 13.141
rhand 15.1485 2.13715
rfingers 7.12502
rthumb 39.9914 -23.0915
lclavicle -4.96962e-014 -6.40087e-014
lhumerus 56.5638 -9.29205 12.3341
lradius 34.3062
lwrist -14.7129
lhand 5.26327 19.8369
lfingers 7.12502
lthumb 30.621 47.3099
rfemur -58.8407 10.8756 21.0257
rtibia 40.8756
rfoot -53.0524 -37.147
rtoes 39.6863
lfemur -9.57027 -4.94232 -23.0362
ltibia 26.0576
lfoot -5.1309 45.7505
ltoes 37.6833
1050
root 0.225349 16.5085 -0.525051 31.4654 -21.7903 3.42861
lowerback -20.455 -4.99139 -1.91603
upperback -22.4788 -7.04732 2.37007
thorax -13.864 -3.39623 3.23243
lowerneck -7.86407 8.70159 0.390451
upperneck 13.9899 9.81662 13.7121
head 4.8037 5.76646 4.79635
rclavicle 5.42682e-014 4.13472e-014
rhumerus -39.3716 -36.3826 25.5799
rradius 19.1637
rwrist 12.7043
rhand 14.8294 1.93478
rfingers 7.12502
rthumb 39.691 -23.3837
lclavicle 5.42682e-014 4.13472e-014
lhumerus 56.8493 -8.50829 13.6672
lradius 34.0868
lwrist -14.837
lhand 4.56815 19.9481
lfingers 7.12502
lthumb 29.958 47.543
rfemur -59.1523 11.0303 21.1549
rtibia 40.8712
rfoot -53.0105 -37.2759
rtoes 39.5355
lfemur -9.86755 -4.76714 -22.7353
ltibia 26.0376
lfoot -28.4875 39.4878
ltoes 50.7274
